<svg width="36" height="36" xmlns="http://www.w3.org/2000/svg" xmlns:xlink="http://www.w3.org/1999/xlink">
  <defs>
    <path d="M37.84 10.855c-.4-1.2783-1.52-2.1883-2.84-2.1883H13c-1.32 0-2.42.91-2.84 2.1883L6 23.8333v17.3334c0 1.1916.9 2.1666 2 2.1666h2c1.1 0 2-.975 2-2.1666V39h24v2.1667c0 1.1916.9 2.1666 2 2.1666h2c1.1 0 2-.975 2-2.1666V23.8333L37.84 10.855zM13 32.5c-1.66 0-3-1.4517-3-3.25S11.34 26 13 26s3 1.4517 3 3.25-1.34 3.25-3 3.25zm22 0c-1.66 0-3-1.4517-3-3.25S33.34 26 35 26s3 1.4517 3 3.25-1.34 3.25-3 3.25zM10 21.6667l3-9.75h22l3 9.75H10z" id="a"/>
    <path id="c" d="M0 0h100v108H0z"/>
  </defs>
  <g transform="translate(-6 -8)" fill="none" fill-rule="evenodd">
    <mask id="b" fill="#fff">
      <use xlink:href="#a"/>
    </mask>
    <g mask="url(#b)">
      <use fill="#FFF" xlink:href="#c" transform="translate(-26 -28.1667)"/>
    </g>
  </g>
</svg>
