<svg width="26" height="43" xmlns="http://www.w3.org/2000/svg" xmlns:xlink="http://www.w3.org/1999/xlink">
  <defs>
    <path d="M27 11c2.2 0 4-1.8 4-4s-1.8-4-4-4-4 1.8-4 4 1.8 4 4 4zm-7.4 6.8L14 46h4.2l3.6-16 4.2 4v12h4V31l-4.2-4 1.2-6c2.6 3 6.6 5 11 5v-4c-3.8 0-7-2-8.6-4.8l-2-3.2c-.8-1.2-2-2-3.4-2-.6 0-1 .2-1.6.2L12 16.6V26h4v-6.8l3.6-1.4z" id="a"/>
    <path id="c" d="M0 0h100v100H0z"/>
  </defs>
  <g transform="translate(-12 -3)" fill="none" fill-rule="evenodd">
    <mask id="b" fill="#fff">
      <use xlink:href="#a"/>
    </mask>
    <g mask="url(#b)">
      <use fill="#FFF" xlink:href="#c" transform="translate(-26 -26)"/>
    </g>
  </g>
</svg>
