<svg width="44" height="28" xmlns="http://www.w3.org/2000/svg" xmlns:xlink="http://www.w3.org/1999/xlink">
  <defs>
    <path d="M32 22c3.32 0 5.98-2.68 5.98-6s-2.66-6-5.98-6c-3.32 0-6 2.68-6 6s2.68 6 6 6zm-16 0c3.32 0 5.98-2.68 5.98-6s-2.66-6-5.98-6c-3.32 0-6 2.68-6 6s2.68 6 6 6zm0 4c-4.66 0-14 2.34-14 7v5h28v-5c0-4.66-9.34-7-14-7zm16 0c-.58 0-1.24.04-1.94.1C32.38 27.78 34 30.04 34 33v5h12v-5c0-4.66-9.34-7-14-7z" id="a"/>
    <path id="c" d="M0 0h100v100H0z"/>
  </defs>
  <g transform="translate(-2 -10)" fill="none" fill-rule="evenodd">
    <mask id="b" fill="#fff">
      <use xlink:href="#a"/>
    </mask>
    <g mask="url(#b)">
      <use fill="#FFF" xlink:href="#c" transform="translate(-26 -26)"/>
    </g>
  </g>
</svg>
